# xmcd
# 
# Track frame offsets:
#     150
#     1430
#     21620
#     39585
#     62965
#     84695
#     105240
#     126957
#     147240
#     167735
#     187435
#     190290
# 
# Disc length: 2874
# 
# Revision: 10
# Processed by: cddbd v1.5.2PL0 Copyright (c) Steve Scherf et al.
# Submitted via: fre:ac v1.0.27
# 
DISCID=b00b380c
DTITLE=広末涼子 - ARIGATO!
DYEAR=1997
DGENRE=JPop
TTITLE0=prologue 〜m. k. 5〜
TTITLE1=大スキ !
TTITLE2=恋のカウンセル
TTITLE3=風のプリズム
TTITLE4=言い出せなくて
TTITLE5=ヨリミチ
TTITLE6=とまどい 〜back to the summer version〜
TTITLE7=It's my Idol
TTITLE8=なんてったって　今日はクリスマス !
TTITLE9=Maji で Koi する 5秒前
TTITLE10=f. s. b. 〜five seconds before〜
TTITLE11=アリガト !
EXTD=YEAR: 1997
EXTT0=
EXTT1=
EXTT2=
EXTT3=
EXTT4=
EXTT5=
EXTT6=
EXTT7=
EXTT8=
EXTT9=
EXTT10=
EXTT11=
PLAYORDER=
